<?xml version="1.0" standalone="no"?>
<!DOCTYPE svg PUBLIC "-//W3C//DTD SVG 20010904//EN"
 "http://www.w3.org/TR/2001/REC-SVG-20010904/DTD/svg10.dtd">
<svg version="1.0" xmlns="http://www.w3.org/2000/svg"
 width="160.000000pt" height="136.000000pt" viewBox="0 0 160.000000 136.000000"
 preserveAspectRatio="xMidYMid meet">

<g transform="translate(0.000000,136.000000) scale(0.100000,-0.100000)"
fill="#000000" stroke="none">
<path d="M569 1120 c-112 -104 -204 -193 -204 -199 0 -9 405 -391 415 -391 7
0 414 379 418 389 3 8 -405 391 -417 391 -4 0 -100 -85 -212 -190z m0 -174 c9
-10 9 -16 1 -21 -8 -5 -8 -11 1 -21 6 -8 9 -18 5 -22 -4 -4 -15 2 -23 13 -11
14 -17 16 -20 8 -9 -25 -23 -12 -23 22 0 30 3 35 24 35 13 0 29 -6 35 -14z
m79 -4 c2 -8 -5 -11 -20 -10 -15 2 -23 -2 -23 -12 0 -10 8 -14 23 -13 25 3 30
-12 7 -21 -35 -13 -58 14 -44 52 10 25 49 28 57 4z m52 -17 c0 -19 -4 -35 -9
-35 -10 0 -22 51 -14 62 11 19 23 5 23 -27z m50 0 c0 -40 -15 -47 -22 -11 -4
21 7 46 19 46 2 0 3 -16 3 -35z m67 -2 c3 -35 -7 -46 -31 -37 -25 10 -19 26 6
18 19 -6 21 -5 11 8 -7 8 -10 18 -6 21 3 4 -1 7 -11 7 -9 0 -14 5 -11 11 14
21 39 4 42 -28z m58 27 c3 -5 -2 -10 -12 -10 -17 -1 -17 -1 0 -11 19 -11 23
-34 7 -44 -14 -9 -40 13 -40 34 0 30 32 52 45 31z m55 -25 c0 -19 -4 -35 -10
-35 -5 0 -10 9 -10 20 0 11 -5 20 -11 20 -8 0 -8 5 1 15 20 24 30 17 30 -20z
m58 23 c25 -25 0 -80 -29 -62 -9 5 -7 10 7 15 17 7 17 8 2 8 -25 1 -23 51 2
51 3 0 11 -5 18 -12z m67 2 c3 -5 1 -19 -5 -30 -8 -14 -8 -20 0 -20 6 0 8 -4
5 -10 -9 -14 -45 -13 -45 2 0 6 8 20 18 31 16 19 16 20 0 14 -10 -4 -18 -3
-18 2 0 20 34 29 45 11z"/>
<path d="M850 910 c0 -5 5 -10 11 -10 5 0 7 5 4 10 -3 6 -8 10 -11 10 -2 0 -4
-4 -4 -10z"/>
<path d="M965 930 c3 -5 8 -10 11 -10 2 0 4 5 4 10 0 6 -5 10 -11 10 -5 0 -7
-4 -4 -10z"/>
<path d="M1185 1190 c-3 -5 0 -10 8 -10 27 0 26 -25 -1 -27 -18 -1 -21 1 -11
8 12 7 12 9 -1 8 -8 0 -36 -19 -62 -43 l-48 -44 86 -77 c46 -43 83 -81 82 -85
-2 -4 -44 -46 -95 -93 -80 -75 -90 -87 -76 -99 13 -10 17 -10 20 0 3 6 9 12
15 12 7 0 7 -5 -1 -13 -8 -11 -6 -18 10 -33 16 -14 22 -15 28 -5 6 9 11 10 15
2 4 -6 1 -11 -6 -11 -7 0 2 -14 19 -32 31 -31 33 -31 52 -14 11 10 18 24 14
30 -3 6 -3 8 2 4 11 -11 67 31 59 44 -4 6 -2 8 4 4 5 -3 34 15 64 42 29 26 79
70 111 96 32 27 56 52 55 56 -8 19 -111 99 -120 94 -6 -4 -8 -3 -5 3 4 6 -13
26 -36 46 -23 19 -55 47 -72 62 -72 63 -104 85 -110 75z m-25 -60 c0 -5 -8
-10 -17 -10 -15 0 -16 2 -3 10 19 12 20 12 20 0z m46 -15 c-3 -14 0 -25 5 -25
6 0 7 -5 3 -11 -4 -8 -10 -5 -17 7 -15 25 -18 46 -6 38 5 -3 9 0 9 5 0 6 2 11
5 11 3 0 3 -11 1 -25z m-36 -35 c-9 -6 -9 -9 1 -12 7 -2 -1 -10 -19 -16 -18
-6 -30 -7 -27 -2 4 6 13 10 21 10 8 0 12 5 9 10 -9 14 4 32 17 24 7 -4 6 -9
-2 -14z m63 -29 c-3 -11 -11 -17 -19 -14 -10 4 -11 8 -1 19 17 19 26 17 20 -5z
m32 9 c3 -5 1 -10 -4 -10 -6 0 -11 5 -11 10 0 6 2 10 4 10 3 0 8 -4 11 -10z
m-59 -48 c-4 -3 -11 0 -16 8 -15 24 -11 33 6 15 9 -9 13 -19 10 -23z m79 18
c13 -6 15 -9 5 -9 -12 -1 -12 -3 -2 -10 10 -6 9 -10 -7 -14 -12 -3 -19 -1 -16
3 3 5 0 12 -6 16 -6 3 -15 0 -20 -7 -4 -7 -11 -10 -15 -6 -4 4 1 14 12 22 22
16 22 17 49 5z m100 -10 c3 -6 -1 -7 -9 -4 -18 7 -21 14 -7 14 6 0 13 -4 16
-10z m-155 -45 c0 -10 -16 -4 -40 16 l-25 20 33 -16 c17 -8 32 -18 32 -20z
m99 19 c-10 -13 -10 -17 2 -24 10 -7 8 -9 -8 -7 -12 0 -19 6 -16 12 10 18 25
35 30 35 3 0 0 -7 -8 -16z m74 -14 c9 -11 13 -20 8 -20 -5 0 -16 -2 -24 -5 -8
-4 -14 0 -14 9 0 8 5 12 10 9 6 -4 7 -1 2 6 -4 7 -16 11 -26 8 -11 -3 -17 -1
-13 4 9 16 39 10 57 -11z m-103 6 c0 -3 -4 -8 -10 -11 -5 -3 -10 -1 -10 4 0 6
5 11 10 11 6 0 10 -2 10 -4z m-50 -36 c0 -5 -2 -10 -4 -10 -3 0 -8 5 -11 10
-3 6 -1 10 4 10 6 0 11 -4 11 -10z m156 -15 c-11 -8 -27 -14 -35 -14 -13 1
-12 2 2 6 9 2 17 9 17 14 0 5 8 9 18 9 15 -1 15 -2 -2 -15z m104 -29 c0 -6 -4
-5 -9 3 -7 11 -9 11 -14 0 -3 -8 -4 -4 -4 8 1 17 4 19 14 11 7 -6 13 -16 13
-22z m-43 9 c0 -8 -4 -12 -9 -9 -5 3 -6 10 -3 15 9 13 12 11 12 -6z m-74 -22
c-7 -2 -19 -2 -25 0 -7 3 -2 5 12 5 14 0 19 -2 13 -5z m47 -7 c0 -2 -6 -9 -13
-15 -10 -8 -14 -7 -14 4 0 8 6 15 14 15 7 0 13 -2 13 -4z m-175 -35 c-3 -2
-11 1 -18 7 -16 14 -28 6 -20 -14 3 -8 10 -11 17 -7 6 3 8 2 3 -2 -16 -18 -45
-15 -50 5 -3 11 -2 18 3 15 4 -3 13 2 20 10 9 11 16 12 30 2 11 -6 17 -13 15
-16z m64 -67 c4 3 8 -2 8 -10 0 -10 -4 -11 -10 -5 -7 7 -15 7 -25 -2 -13 -11
-14 -9 -1 11 8 12 15 18 17 12 2 -6 7 -8 11 -6z m-204 -14 c-10 -11 -22 -20
-28 -20 -5 0 1 9 14 20 31 25 37 25 14 0z m60 0 c-3 -5 -12 -10 -18 -10 -7 0
-6 4 3 10 19 12 23 12 15 0z m-27 -41 c-19 -12 -25 -11 -25 5 0 8 8 11 20 8
14 -4 16 -7 5 -13z m149 15 c-3 -3 -12 -4 -19 -1 -8 3 -5 6 6 6 11 1 17 -2 13
-5z m-105 -43 c8 11 9 11 5 -1 -2 -8 -11 -16 -20 -18 -13 -3 -15 1 -10 14 5
13 8 14 11 5 4 -11 6 -11 14 0z m58 5 c0 -2 -6 -9 -14 -15 -11 -9 -16 -9 -22
0 -4 8 -3 9 4 5 7 -4 12 -2 12 3 0 6 5 11 10 11 6 0 10 -2 10 -4z m-50 -45 c0
-10 -26 -9 -36 2 -4 4 2 7 14 7 12 0 22 -4 22 -9z"/>
<path d="M322 1138 c-206 -176 -261 -224 -262 -229 0 -3 43 -42 96 -87 83 -71
99 -81 113 -70 14 11 14 11 3 -3 -10 -14 -4 -23 43 -64 46 -39 58 -45 70 -35
9 8 15 8 15 2 0 -6 -6 -12 -12 -15 -7 -2 -10 -8 -6 -12 4 -4 37 18 73 49 l65
58 -52 46 c-28 26 -56 46 -61 44 -5 -1 -6 1 -3 6 8 14 -60 75 -75 67 -8 -5
-10 -4 -5 3 4 7 2 12 -3 12 -6 0 -11 -7 -11 -15 0 -8 -8 -15 -17 -15 -13 0
-14 3 -6 8 9 6 4 13 -17 26 -30 17 -40 36 -19 36 5 0 8 -4 5 -9 -10 -15 25
-22 42 -9 12 10 14 10 8 1 -4 -7 -3 -13 1 -13 14 0 128 110 125 120 -1 6 2 9
6 8 4 -2 22 9 39 23 l31 26 -44 37 c-24 20 -49 34 -54 31 -6 -3 -10 1 -10 9 0
25 -12 19 -78 -36z m37 0 c-2 -2 -20 -16 -39 -33 l-35 -30 34 37 c19 21 37 36
39 33 3 -3 3 -6 1 -7z m19 -47 c3 -8 -1 -12 -9 -9 -7 2 -15 10 -17 17 -3 8 1
12 9 9 7 -2 15 -10 17 -17z m96 7 c-4 -5 -9 -7 -12 -4 -3 3 -12 0 -21 -7 -14
-10 -14 -10 -4 4 13 16 46 23 37 7z m-188 -44 c-3 -8 -2 -12 4 -9 6 3 10 1 10
-4 0 -6 -7 -11 -15 -11 -8 0 -15 9 -15 20 0 11 5 20 11 20 6 0 8 -7 5 -16z
m84 6 c0 -5 -7 -7 -15 -4 -8 4 -15 8 -15 10 0 2 7 4 15 4 8 0 15 -4 15 -10z
m-33 -35 c0 -8 -4 -12 -9 -9 -5 3 -6 10 -3 15 9 13 12 11 12 -6z m52 -18 c0
-9 -2 -8 -6 1 -2 6 -10 9 -15 6 -7 -4 -8 -2 -4 5 9 13 26 5 25 -12z m-164 -5
c-6 -4 -10 -13 -10 -21 0 -8 -8 -15 -18 -17 -9 -1 -15 2 -12 6 3 5 0 12 -7 16
-8 5 -3 12 17 20 30 12 49 9 30 -4z m82 -17 c0 -8 -4 -15 -9 -15 -4 0 -8 7 -8
15 0 8 4 15 8 15 5 0 9 -7 9 -15z m-203 -86 c-2 -4 2 -9 8 -12 7 -2 10 -7 7
-11 -3 -3 -13 2 -22 12 -14 15 -15 19 -2 19 8 0 12 -4 9 -8z m166 -3 c0 -2 -7
-6 -15 -10 -8 -3 -15 -1 -15 4 0 6 7 10 15 10 8 0 15 -2 15 -4z m-110 -31 c-7
-9 -6 -14 4 -18 18 -7 30 8 20 25 -5 7 -3 8 5 4 7 -5 10 -14 7 -21 -2 -7 1
-18 7 -24 8 -8 8 -11 -2 -11 -7 0 -9 -5 -5 -12 4 -7 3 -8 -5 -4 -6 4 -9 12 -6
17 4 5 0 9 -8 9 -16 0 -50 34 -42 42 3 2 12 5 20 5 10 0 12 -4 5 -12z m74 7
c3 -5 -1 -9 -9 -9 -8 0 -12 4 -9 9 3 4 7 8 9 8 2 0 6 -4 9 -8z m126 -37 c4 3
5 -5 2 -17 -5 -19 -7 -20 -10 -5 -2 9 -8 15 -13 12 -5 -4 -6 2 -2 11 4 11 8
13 11 6 2 -7 7 -10 12 -7z m-123 -17 c-3 -8 -6 -5 -6 6 -1 11 2 17 5 13 3 -3
4 -12 1 -19z m13 -34 c0 -8 -5 -12 -10 -9 -6 4 -8 11 -5 16 9 14 15 11 15 -7z
m181 -11 c13 -16 12 -17 -3 -4 -10 7 -18 15 -18 17 0 8 8 3 21 -13z m20 -40
c-12 -20 -14 -14 -5 12 4 9 9 14 11 11 3 -2 0 -13 -6 -23z m-36 8 c-7 -13 24
-42 38 -35 7 3 4 -1 -5 -9 -10 -8 -15 -16 -13 -19 3 -3 -2 -11 -10 -18 -14
-11 -14 -10 -6 13 10 26 -1 48 -14 27 -3 -5 -15 -10 -26 -10 -11 0 -17 -4 -14
-10 4 -6 -1 -7 -12 -3 -15 6 -13 8 10 18 15 6 24 15 20 19 -4 4 1 4 12 0 14
-6 17 -4 12 8 -3 9 -3 19 0 22 10 9 15 7 8 -3z m69 -9 c3 -5 -1 -9 -9 -9 -8 0
-12 4 -9 9 3 4 7 8 9 8 2 0 6 -4 9 -8z"/>
<path d="M190 991 c0 -5 5 -13 10 -16 6 -3 10 -2 10 4 0 5 -4 13 -10 16 -5 3
-10 2 -10 -4z"/>
<path d="M118 428 c16 -16 16 -180 0 -196 -9 -9 1 -12 48 -11 32 0 53 3 47 6
-17 6 -18 184 -1 201 9 9 -1 12 -47 12 -46 0 -56 -3 -47 -12z"/>
<path d="M552 424 c-12 -8 -22 -24 -22 -34 0 -10 -8 -21 -17 -23 -17 -4 -17
-5 0 -6 14 -1 17 -11 17 -65 0 -42 -4 -66 -12 -69 -7 -3 12 -5 42 -5 30 0 49
2 43 5 -9 3 -13 26 -13 63 0 46 4 61 18 69 16 10 16 10 -2 11 -15 0 -17 6 -14
35 4 39 -5 44 -40 19z"/>
<path d="M620 420 c12 -22 18 -24 39 -11 19 12 4 31 -25 31 -22 0 -23 -3 -14
-20z"/>
<path d="M809 438 c-5 -19 -8 -48 -4 -48 3 0 14 9 25 20 11 11 31 20 45 20 25
0 25 0 25 -99 0 -70 -4 -101 -12 -104 -7 -3 14 -6 46 -6 47 -1 57 2 48 11 -8
8 -12 46 -12 105 0 93 0 93 25 93 15 0 36 -11 50 -26 l25 -27 0 32 0 31 -130
0 c-71 0 -130 -1 -131 -2z"/>
<path d="M1258 429 c16 -17 17 -180 0 -197 -9 -9 -2 -12 33 -12 l45 0 -4 35
c-5 44 6 44 38 0 22 -30 31 -34 67 -35 l42 0 -49 46 c-27 26 -47 51 -44 56 4
5 20 18 38 29 l31 19 -40 0 c-25 0 -35 -3 -27 -9 10 -6 5 -15 -20 -36 l-33
-28 -5 69 -5 69 -40 3 c-32 3 -38 1 -27 -9z"/>
<path d="M395 372 c-3 -3 -31 -5 -63 -4 l-57 2 0 -75 0 -75 44 0 c36 0 42 2
32 14 -7 8 -11 36 -9 63 3 44 5 48 31 51 l29 3 -4 -65 -3 -66 35 0 35 0 -5 63
c-3 34 -9 67 -13 73 -8 14 -43 24 -52 16z"/>
<path d="M715 373 c-35 -8 -65 -44 -65 -78 0 -34 19 -58 60 -74 17 -7 -67 -10
-277 -10 -195 -1 -303 -5 -303 -11 0 -7 223 -10 650 -10 427 0 650 3 650 10 0
6 -121 10 -342 11 -231 1 -332 4 -311 10 45 13 69 60 52 100 -16 40 -66 63
-114 52z m50 -78 c0 -57 -1 -60 -25 -60 -23 0 -25 4 -28 49 -4 62 2 78 30 74
21 -3 23 -8 23 -63z"/>
<path d="M1125 373 c-60 -14 -86 -92 -45 -133 28 -28 100 -28 126 1 19 22 19
22 -3 10 -31 -16 -50 -14 -73 9 -32 32 -24 40 35 40 47 0 55 3 55 18 0 35 -52
65 -95 55z m45 -39 c0 -20 -5 -24 -30 -24 -33 0 -40 19 -15 44 21 20 45 10 45
-20z"/>
<path d="M102 115 c0 -16 2 -22 5 -12 2 9 2 23 0 30 -3 6 -5 -1 -5 -18z"/>
<path d="M130 129 c0 -5 5 -7 10 -4 6 3 10 8 10 11 0 2 -4 4 -10 4 -5 0 -10
-5 -10 -11z"/>
<path d="M1112 115 c0 -16 2 -22 5 -12 2 9 2 23 0 30 -3 6 -5 -1 -5 -18z"/>
<path d="M680 126 c0 -3 9 -10 20 -16 11 -6 20 -8 20 -6 0 3 -9 10 -20 16 -11
6 -20 8 -20 6z"/>
<path d="M1342 110 c0 -14 2 -19 5 -12 2 6 2 18 0 25 -3 6 -5 1 -5 -13z"/>
<path d="M260 116 c0 -2 8 -10 18 -17 15 -13 16 -12 3 4 -13 16 -21 21 -21 13z"/>
<path d="M511 104 c0 -11 3 -14 6 -6 3 7 2 16 -1 19 -3 4 -6 -2 -5 -13z"/>
<path d="M1030 116 c0 -2 8 -10 18 -17 15 -13 16 -12 3 4 -13 16 -21 21 -21
13z"/>
<path d="M160 101 c0 -6 4 -13 10 -16 6 -3 7 1 4 9 -7 18 -14 21 -14 7z"/>
<path d="M420 101 c0 -6 4 -13 10 -16 6 -3 7 1 4 9 -7 18 -14 21 -14 7z"/>
<path d="M930 101 c0 -6 4 -13 10 -16 6 -3 7 1 4 9 -7 18 -14 21 -14 7z"/>
<path d="M980 101 c0 -6 4 -13 10 -16 6 -3 7 1 4 9 -7 18 -14 21 -14 7z"/>
</g>
</svg>
